**ABCDEFGHIJKLMNOPQRSTUVWXYZabcdefghijklmnopqrstuvwxyz**************************
**PARASOLID !"#$%&'()*+,-./:;<=>?@[\]^_`{|}~0123456789**************************
**PART1;
MC=AMD64;
MC_MODEL=Intel64 Family 6 Model 42 Stepping 7, GenuineIntel;
MC_ID=unknown;
OS=Windows_NT;
OS_RELEASE=unknown;
FRU=Parasolid Version 29.0, build 195, 12- 2-2016;
APPL=SOLIDWORKS 2017-2017109;
SITE=;
USER=unknown;
FORMAT=text;
GUISE=transmit;
KEY=plunger;
FILE=plunger.x_t;
DATE=Thu Jun 08 06:09:52 2017;
**PART2;
SCH=SCH_2900195_28101;
USFLD_SIZE=0;
**PART3;
**END_OF_HEADER*****************************************************************
T51 : TRANSMIT FILE created by modeller version 290019523 SCH_2900195_28101_1300
6203 0 12 33 CCCCCCI4 mesh1006 0 I8 polyline1008 0 CCCCCCCDI5 owner1040 0 CCCCCC
I13 boundary_mesh1006 0 I17 boundary_polyline1008 0 CCCA16 index_map_offset0 0 1
 dA9 index_map82 0 A17 node_id_index_map82 0 A20 schema_embedding_map82 0 A5 chi
ld12 0 A14 lowest_node_id0 0 1 dZ1 561 2 3 0 0 0 0 0 0 1e3 1e-8 0 4 0 1 0 1 1 5
 6 7 0 0 0 8 9 0 0 0 0 0 0 0 81 255 2 2 336 10 1 0 0 0 0 11 0 70 11 CI9 list_typ
e0 0 1 uI10 notransmit0 0 1 lCCCDCCDI12 finger_index0 0 1 dI12 finger_block1012
 0 CZ3 0 4 T1 0 0 3 20 1 12 12 13 255 5 29 0 1 0 13 0 0 14 0 52 255 6 197 0 15 1
6 0 0 +0 .001524000000000025 0 0 1 0 .018542 .707106781186546 .707106781186549 0
 0 1 31 255 7 181 0 9 17 0 0 -0 0 0 0 1 0 0 0 1 .017018 19 8 CCCCCCCA5 owner12 0
 Z8 7 0 1 14 0 18 V0 16 255 9 178 0 ?19 0 20 7 0 0 1 17 255 19 0 21 19 19 0 22 9
 0 0 +16 20 172 0 ?23 9 24 17 0 0 1 17 23 0 25 23 23 0 26 20 0 0 +16 24 144 0 ?2
7 20 28 29 0 0 1 31 17 175 0 20 29 7 0 +0 .001524000000000025 0 0 1 0 0 0 1 .018
542 31 29 147 0 24 30 17 0 -0 .164146416739421 0 0 1 0 0 0 1 .0164338 31 30 141
 0 28 31 29 0 +0 .172212 0 0 1 0 0 0 1 .00246379999999985 16 28 138 0 ?32 24 33
 30 0 0 1 31 31 5 0 33 34 30 0 +0 .155575 0 0 1 0 0 0 1 .018542 16 33 4 0 ?35 28
 36 31 0 0 1 31 34 82 0 37 38 31 0 +0 .155575 0 0 1 0 0 0 1 .0138811 16 37 60 0
 ?39 36 40 34 0 0 1 31 38 83 0 36 41 34 0 +0 .162687 0 0 1 0 0 0 1 .0138811 16 3
6 63 0 ?42 33 37 38 0 0 1 31 41 124 0 40 0 38 0 +0 .162687 0 0 1 0 0 0 1 .016433
8 16 40 96 0 ?43 37 0 41 0 0 1 17 43 0 44 43 43 0 45 40 0 0 +15 255 44 110 0 43
 46 0 17 45 0 47 45 45 0 43 40 0 0 -15 47 117 0 45 48 0 14 255 48 114 49 ?50 51
 52 5 53 -0 0 50 51 18 81 1 49 553 54 48 55 0 0 56 57 14 50 156 56 ?15 48 58 5 1
6 +0 0 15 48 18 14 51 111 59 ?48 46 60 5 61 +0 0 48 46 18 15 52 116 0 42 48 47 5
0 255 53 121 0 48 61 62 0 +0 .162687 0 0 1 0 0 0 1 13 18 8 0 0 0 0 0 0 8 13 14 1
3 25 63 ?64 0 25 5 65 -0 0 64 0 18 81 1 63 556 54 13 66 0 59 67 68 14 64 1 67 ?6
9 13 70 5 71 +0 0 69 13 18 15 25 173 0 23 13 72 51 255 65 28 0 13 73 16 0 -0 .15
5575 0 0 -1 0 .018542 0 0 -1 50 73 22 0 69 71 65 0 +0 0 0 0 1 0 0 0 1 52 16 163
 0 50 65 6 0 +0 .172212 0 0 -1 0 .00246379999999985 .866025403784439 .5 0 0 -1 1
4 69 16 74 ?75 64 21 5 73 -0 0 75 64 18 50 71 2 0 64 76 73 0 +0 .155575 0 0 1 0
 0 0 1 51 76 79 0 75 62 71 0 -0 .162687 0 0 -1 0 .0138811 0 0 -1 14 75 66 77 ?46
 69 78 5 76 -0 0 46 69 18 51 62 120 0 46 53 76 0 -0 .172212 0 0 -1 0 .0164338 0
 0 -1 14 46 106 79 ?51 75 80 5 62 -0 0 51 75 18 81 1 79 560 54 46 81 0 77 82 83
 15 80 145 0 27 46 44 17 27 0 80 27 27 0 84 24 0 0 +17 84 0 58 84 84 0 27 24 0 0
 -15 58 157 0 84 50 85 15 85 158 0 86 50 0 17 86 0 85 86 86 0 32 28 0 0 -17 32 0
 60 32 32 0 86 28 0 0 +15 60 139 0 32 51 0 80 255 1 54 87 88 9000 1 1 1 1 1 1 1
 1 0 FFFFTFTFFFFFFF1 81 1 81 528 89 46 0 79 90 91 92 81 1 77 559 54 75 90 0 74 7
9 93 81 1 82 561 54 15 94 0 79 0 95 82 255 1 83 1337655415 14 15 190 82 ?0 50 96
 5 6 +0 0 0 50 18 81 1 94 532 89 15 0 82 97 0 98 82 1 95 -1904607111 80 1 89 0 9
9 8001 0 0 0 0 3 5 0 0 0 FFFFTFTFFFFFFF2 81 1 97 531 89 50 0 56 55 94 100 83 255
 3 98 .776470588235294 .756862745098039 .737254901960784 81 1 56 554 54 50 97 0
 49 59 101 81 1 55 530 89 48 0 49 91 97 102 83 3 100 .776470588235294 .756862745
098039 .737254901960784 81 1 91 529 89 51 0 59 81 55 103 83 3 102 .7764705882352
94 .756862745098039 .737254901960784 81 1 59 555 54 51 91 0 56 63 104 83 3 103 .
776470588235294 .756862745098039 .737254901960784 82 1 104 1335689335 82 1 101 2
110521463 79 255 15 99 SDL/TYSA_COLOUR15 96 191 0 22 15 105 17 22 0 96 22 22 0 1
9 9 0 0 -15 105 192 0 26 15 0 17 26 0 105 26 26 0 23 20 0 0 -81 1 90 527 89 75 0
 77 106 81 107 81 1 74 558 54 69 106 0 67 77 108 82 1 93 852492402 81 1 106 526
 89 69 0 74 109 90 110 81 1 67 557 54 64 109 0 63 74 111 82 1 108 294846585 81 1
 109 525 89 64 0 67 66 106 112 82 1 111 293142642 81 1 66 524 89 13 0 63 0 109 1
13 83 3 112 .776470588235294 .756862745098039 .737254901960784 83 3 113 .7764705
88235294 .756862745098039 .737254901960784 83 3 110 .776470588235294 .7568627450
98039 .737254901960784 83 3 107 .776470588235294 .756862745098039 .7372549019607
84 83 3 92 .776470588235294 .756862745098039 .737254901960784 79 14 88 SWEntUnch
anged15 78 69 0 114 75 115 17 114 0 78 114 114 0 42 36 0 0 -15 115 70 0 39 75 0
 17 39 0 115 39 39 0 116 37 0 0 +17 116 0 70 116 116 0 39 37 0 0 -15 70 54 0 116
 64 117 15 117 3 0 35 64 0 17 35 0 117 35 35 0 118 33 0 0 +17 118 0 72 118 118 0
 35 33 0 0 -15 72 24 0 118 13 0 17 42 0 52 42 42 0 114 36 0 0 +15 21 179 0 19 69
 0 82 1 68 295108729 50 61 122 0 51 0 53 0 +0 .172212 0 0 1 0 0 0 1 82 1 57 1337
393269 19 14 30 0 1 0 8 5 S0 74 4 CI16 index_map_offset0 0 1 dCCZ20 12 3 0 0 82
 2 94 0 0 0 0 0 0 0 0 0 0 0 0 0 0 0 0 0 80 2 10 119 120 8004 0 0 0 0 3 5 0 0 0 F
FTFFFFFFFFFFF2 3 83 1 11 8000.000133 79 16 120 SDL/TYSA_DENSITY1 0 
