**ABCDEFGHIJKLMNOPQRSTUVWXYZabcdefghijklmnopqrstuvwxyz**************************
**PARASOLID !"#$%&'()*+,-./:;<=>?@[\]^_`{|}~0123456789**************************
**PART1;
MC=AMD64;
MC_MODEL=Intel64 Family 6 Model 42 Stepping 7, GenuineIntel;
MC_ID=unknown;
OS=Windows_NT;
OS_RELEASE=unknown;
FRU=Parasolid Version 29.0, build 195, 12- 2-2016;
APPL=SOLIDWORKS 2017-2017109;
SITE=;
USER=unknown;
FORMAT=text;
GUISE=transmit;
KEY=syringe mount;
FILE=syringe mount.x_t;
DATE=Thu Jun 08 06:09:00 2017;
**PART2;
SCH=SCH_2900195_28101;
USFLD_SIZE=0;
**PART3;
**END_OF_HEADER*****************************************************************
T51 : TRANSMIT FILE created by modeller version 290019523 SCH_2900195_28101_1300
6203 0 12 33 CCCCCCI4 mesh1006 0 I8 polyline1008 0 CCCCCCCDI5 owner1040 0 CCCCCC
I13 boundary_mesh1006 0 I17 boundary_polyline1008 0 CCCA16 index_map_offset0 0 1
 dA9 index_map82 0 A17 node_id_index_map82 0 A20 schema_embedding_map82 0 A5 chi
ld12 0 A14 lowest_node_id0 0 1 dZ1 1822 2 3 0 0 0 0 0 0 1e3 1e-8 0 4 0 1 0 1 1 5
 6 7 8 0 0 9 10 11 0 0 0 0 0 0 81 255 2 2 1283 12 1 0 0 0 0 13 0 70 11 CI9 list_
type0 0 1 uI10 notransmit0 0 1 lCCCDCCDI12 finger_index0 0 1 dI12 finger_block10
12 0 CZ3 0 4 T1 0 0 4 20 1 14 14 13 255 5 94 0 1 0 15 0 0 16 0 52 255 6 1337 0 1
7 18 0 0 -.0254 .151638 .0254 0 1 0 .0205994 .707106781186564 .707106781186531 0
 0 1 31 255 7 1320 0 10 19 0 0 -.0254 .1524 .0254 0 1 0 0 0 1 .0213614 29 255 8
 632 0 11 20 0 .041275 0 .0147066 19 8 CCCCCCCA5 owner12 0 Z9 28 0 1 16 0 21 V0
 16 255 10 1317 0 ?22 0 23 7 0 0 1 18 255 11 630 0 24 0 25 8 ?1 17 255 24 0 26 2
7 28 11 29 30 0 31 +18 25 613 0 32 11 33 20 ?1 17 32 0 34 35 36 25 37 38 0 28 +1
8 33 604 0 39 25 40 41 ?1 29 20 615 0 25 41 8 .041275 .04318 .0147066 29 41 606
 0 33 42 20 .009525 .04318 .0147066 29 42 603 0 40 43 41 .009525 0 .0147066 18 4
0 601 0 44 33 45 42 ?1 29 43 590 0 45 46 42 .015875 .04318 .0083566 18 45 588 0
 47 40 48 43 ?1 29 46 587 0 48 49 43 .034925 .04318 .0083566 18 48 585 0 37 45 5
0 46 ?1 29 49 584 0 50 51 46 .034925 0 .0083566 18 50 582 0 52 48 53 49 ?1 29 51
 581 0 53 54 49 .015875 0 .0083566 18 53 579 0 55 50 56 51 ?1 29 54 70 0 57 58 5
1 0 0 0 18 57 61 0 59 60 61 54 ?1 29 58 71 0 61 62 54 .0508 0 0 18 61 62 0 63 57
 64 58 ?1 29 62 72 0 64 65 58 .0508 0 .0508 18 64 63 0 66 61 67 62 ?1 29 65 73 0
 67 68 62 0 0 .0508 18 67 64 0 69 64 70 65 ?1 29 68 27 0 56 71 65 0 .1524 0 18 5
6 25 0 72 53 73 68 ?1 29 71 24 0 73 74 68 .0508 .1524 0 18 73 22 0 75 56 76 71 ?
1 29 74 21 0 76 77 71 .0508 .1524 .0508 18 76 19 0 78 73 60 74 ?1 29 77 18 0 60
 79 74 0 .1524 .0508 18 60 16 0 80 76 57 77 ?1 29 79 471 0 70 81 77 .009525 0 .0
508 18 70 407 0 82 67 83 79 ?1 29 81 472 0 83 84 79 .009525 .04318 .0508 18 83 4
05 0 85 70 86 81 ?1 29 84 473 0 86 87 81 .041275 .04318 .0508 18 86 403 0 35 83
 88 84 ?1 29 87 474 0 88 89 84 .041275 0 .0508 18 88 408 0 27 86 90 87 ?1 29 89
 753 0 90 91 87 .04445 .0189208240143167 .00635 18 90 731 0 92 88 93 89 ?1 29 91
 787 0 93 0 89 .00635 .0189208240143167 .00635 18 93 765 0 94 90 0 91 ?1 17 94 0
 95 94 94 93 0 0 0 0 ?15 255 95 773 0 94 96 97 14 255 96 770 98 ?99 100 95 5 101
 -0 0 99 100 21 15 97 774 0 102 96 0 17 102 0 97 102 102 0 103 104 0 0 +17 103 0
 105 103 103 0 102 104 0 0 -16 104 764 0 ?102 106 107 108 0 0 1 16 106 729 0 ?10
9 110 104 111 0 0 1 16 107 763 0 ?112 104 0 113 0 0 1 31 108 785 0 104 113 111 0
 +.00635 .01778 .00635 0 -1 0 0 0 -1 .00189865 31 113 786 0 107 0 108 0 +.00635
 -1322783870397024e-33 .00635 0 -1 0 0 0 -1 .00189865 31 111 752 0 106 108 114 0
 +.04445 -1322783870397024e-33 .00635 0 -1 0 0 0 -1 .00189865 31 114 751 0 110 1
11 115 0 +.04445 .01778 .00635 0 -1 0 0 0 -1 .00189865 16 110 730 0 ?116 117 106
 114 0 0 1 31 115 562 0 118 114 119 0 +.0254 .047498 .0254 0 -1 0 0 0 -1 .009144
 16 118 532 0 ?120 121 117 115 0 0 1 31 119 561 0 117 115 122 0 +.0254 .04318 .0
254 0 -1 0 0 0 -1 .009144 16 117 528 0 ?123 118 110 119 0 0 1 30 255 122 470 0 1
24 119 125 0 +.041275 0 .0083566 1 0 0 16 124 580 0 ?126 127 128 122 0 0 1 30 12
5 468 0 127 122 129 0 +.034925 .04318 .0083566 -1 0 0 16 127 586 0 ?130 131 124
 125 0 0 1 30 129 465 0 132 125 133 0 +.041275 .04318 .0508 0 1 0 16 132 386 0 ?
134 135 121 129 0 0 1 30 133 464 0 135 129 136 0 +.009525 .04318 .0508 -1 0 0 16
 135 391 0 ?137 128 132 133 0 0 1 30 136 463 0 128 133 138 0 +.009525 0 .0508 0
 -1 0 16 128 398 0 ?139 124 135 136 0 0 1 30 138 462 0 140 136 141 0 +.009525 0
 .0083566 0 0 1 16 140 602 0 ?82 142 143 138 0 0 1 30 141 461 0 143 138 144 0 +.
009525 .04318 .0083566 0 0 1 16 143 605 0 ?85 140 145 141 0 0 1 30 144 460 0 145
 141 146 0 +.041275 .04318 .0083566 0 0 1 16 145 614 0 ?35 143 131 144 0 0 1 30
 146 459 0 131 144 147 0 +.041275 0 .0083566 0 0 1 16 131 631 0 ?27 145 127 146
 0 0 1 31 147 300 0 142 146 148 0 +.0254 .06985 .0254 0 1 0 0 0 1 .01778 16 142
 267 0 ?149 150 140 147 0 0 1 31 148 234 0 151 147 152 0 +.0254 .07747 .0254 0 1
 0 0 0 1 .0205994 16 151 204 0 ?153 154 155 148 0 0 1 30 152 5 0 156 148 157 0 +
0 .1524 0 0 0 1 16 156 4 0 ?158 159 160 152 0 0 1 30 157 8 0 159 152 161 0 +0 .1
524 .0508 1 0 0 16 159 7 0 ?78 162 156 157 0 0 1 30 161 11 0 162 157 163 0 +.050
8 .1524 0 0 0 -1 16 162 10 0 ?75 164 159 161 0 0 1 30 163 14 0 164 161 165 0 +0
 .1524 0 -1 0 0 16 164 13 0 ?72 166 162 163 0 0 1 30 165 69 0 154 163 167 0 +0 0
 0 0 0 1 16 154 57 0 ?168 169 151 165 0 0 1 30 167 68 0 170 165 171 0 +0 0 .0508
 1 0 0 16 170 53 0 ?172 173 169 167 169 169 1 30 171 67 0 173 167 174 0 +.0508 0
 0 0 0 -1 16 173 49 0 ?63 160 170 171 0 0 1 30 174 66 0 160 171 175 0 +0 0 0 -1
 0 0 16 160 45 0 ?59 156 173 174 0 0 1 30 175 90 0 166 174 176 0 +0 .1524 0 0 -1
 0 16 166 74 0 ?177 178 164 175 0 0 1 30 176 91 0 178 175 179 0 +.0508 .1524 0 0
 -1 0 16 178 75 0 ?180 181 166 176 0 0 1 30 179 92 0 181 176 182 0 +.0508 .1524
 .0508 0 -1 0 16 181 76 0 ?183 184 178 179 0 0 1 30 182 93 0 184 179 185 0 +0 .1
524 .0508 0 -1 0 16 184 77 0 ?186 187 181 182 0 0 1 31 185 256 0 150 182 188 0 +
.0254 .07747 .0254 0 1 0 0 0 1 .01778 16 150 266 0 ?189 155 142 185 0 0 1 31 188
 262 0 155 185 190 0 -.0254 .06985 .0254 0 1 0 0 0 1 .0061468 16 155 270 0 ?191
 151 150 188 0 0 1 31 190 524 0 121 188 192 0 -.0254 .047498 .0254 0 -1 0 0 0 -1
 .0061468 16 121 535 0 ?193 132 118 190 0 0 1 30 192 593 0 187 190 194 0 +.03492
5 .04318 .0083566 0 1 0 16 187 591 0 ?195 196 184 192 0 0 1 30 194 598 0 196 192
 197 0 +.015875 0 .0083566 0 -1 0 16 196 596 0 ?198 199 187 194 0 0 1 30 197 609
 0 199 194 200 0 -.009525 .04318 .0147066 0 -1 0 16 199 607 0 ?39 38 196 197 0 0
 1 31 200 618 0 38 197 201 0 -.034925 .04318 .0147066 0 1 0 0 0 1 .00635 16 38 6
16 0 ?32 202 199 200 0 0 1 31 201 625 0 202 200 203 0 -.015875 .04318 .0147066 0
 1 0 0 0 1 .00635 16 202 623 0 ?47 30 38 201 0 0 1 30 203 635 0 30 201 204 0 -.0
41275 0 .0147066 0 1 0 16 30 633 0 ?24 205 202 203 0 0 1 31 204 647 0 205 203 20
6 0 +.015875 0 .0147066 0 1 0 0 0 1 .00635 16 205 639 0 ?44 207 30 204 0 0 1 31
 206 648 0 207 204 19 0 +.034925 0 .0147066 0 1 0 0 0 1 .00635 16 207 643 0 ?52
 23 205 206 0 0 1 31 19 1313 0 23 206 7 0 +.0254 .151638 .0254 0 1 0 0 0 1 .0205
994 16 23 1310 0 ?208 10 207 19 0 0 1 17 208 0 209 208 208 0 210 23 0 0 +15 209
 1311 0 208 211 212 17 210 0 213 210 210 0 208 23 0 0 -15 213 1332 0 210 17 0 14
 17 1330 214 ?0 99 215 5 6 +0 0 0 99 21 81 1 214 1800 216 17 217 0 98 218 219 14
 99 775 218 ?17 96 105 5 220 -0 0 17 96 21 15 215 1331 0 221 17 213 13 21 29 0 0
 0 0 0 0 9 15 14 15 525 222 ?223 0 224 5 225 -0 0 223 0 21 81 1 222 1802 216 15
 226 0 218 227 228 14 223 85 227 ?229 15 230 5 231 -0 0 229 15 21 15 224 261 0 2
32 15 233 51 255 225 168 0 15 234 235 0 +.0254 0 .0254 0 1 0 .0061468 0 0 1 51 2
34 229 0 211 236 225 0 +.0254 .07747 .0254 0 1 0 .0205994 0 0 1 50 255 235 2 0 2
37 225 238 0 +0 .1524 0 0 1 0 0 0 1 14 237 1 239 ?240 241 242 5 235 +0 0 240 241
 21 50 238 65 0 240 235 243 0 +0 0 0 0 1 0 0 0 1 14 240 43 244 ?245 237 246 5 23
8 -0 0 245 237 21 50 243 86 0 241 238 247 0 +0 .1524 0 0 0 1 1 0 0 14 241 79 248
 ?237 249 250 5 243 -0 0 237 249 21 50 247 87 0 249 243 251 0 +.0508 .1524 0 -1
 0 0 0 0 1 14 249 81 252 ?241 229 253 5 247 -0 0 241 229 21 50 251 88 0 229 247
 231 0 +0 .1524 .0508 0 0 -1 -1 0 0 14 229 83 254 ?249 223 255 5 251 -0 0 249 22
3 21 50 231 89 0 223 251 256 0 +0 .1524 0 1 0 0 0 0 -1 51 256 676 0 257 231 18 0
 +.015875 0 .0147066 0 1 0 .00635 0 0 1 14 257 664 258 ?259 260 261 5 256 -0 0 2
59 260 21 51 18 697 0 259 256 6 0 +.034925 0 .0147066 0 -1 0 .00635 0 0 -1 14 25
9 685 262 ?263 257 264 5 18 -0 0 263 257 21 81 1 262 1810 216 259 265 0 258 266
 267 14 263 736 266 ?100 259 268 5 269 -0 0 100 259 21 15 264 686 0 270 259 0 17
 270 0 264 29 271 11 52 207 0 0 -17 29 0 264 37 270 25 24 30 0 0 -17 271 0 264 2
70 37 50 195 187 0 0 -17 52 0 272 273 31 50 270 207 0 126 +15 272 44 0 273 240 0
 17 273 0 272 44 52 53 126 124 0 0 -17 31 0 272 52 274 11 27 131 0 270 -17 126 0
 275 195 198 50 273 124 0 271 +15 275 445 0 130 276 0 17 195 0 275 130 126 48 27
1 187 0 36 +17 198 0 275 126 130 53 277 196 0 273 +17 130 0 275 198 195 45 36 12
7 0 277 +17 277 0 261 278 55 45 198 196 0 0 -15 261 665 0 278 257 0 17 278 0 261
 279 277 33 47 202 0 0 -17 55 0 261 277 279 53 44 205 0 198 -17 279 0 261 55 278
 40 39 199 0 0 -17 44 0 272 82 273 40 55 205 0 280 +17 82 0 272 69 44 70 280 140
 0 139 +17 280 0 281 39 139 40 82 140 0 279 -15 281 431 0 280 282 0 17 39 0 281
 85 280 33 279 199 0 283 +17 139 0 281 280 85 70 284 128 0 172 +17 85 0 281 139
 39 83 283 143 0 137 +17 284 0 255 285 172 83 139 128 0 0 -17 172 0 255 284 186
 70 69 170 0 0 +15 255 82 0 172 229 0 17 186 0 255 172 80 67 286 184 0 168 +17 6
9 0 272 287 82 67 172 170 0 186 -17 287 0 272 288 69 57 168 154 0 0 -17 288 0 27
2 289 287 61 59 160 0 0 -17 168 0 230 286 177 67 287 154 0 0 +15 230 84 0 168 22
3 0 17 286 0 230 290 168 60 186 184 0 0 -17 177 0 230 168 290 57 291 166 0 287 +
17 290 0 230 177 286 56 158 156 0 0 -17 291 0 250 292 59 56 177 166 0 290 -15 25
0 78 0 59 241 0 17 292 0 250 180 291 73 72 164 0 0 -17 59 0 250 291 180 57 288 1
60 0 177 +17 180 0 250 59 292 61 293 178 0 288 +17 293 0 253 294 63 73 180 178 0
 292 -15 253 80 0 63 249 0 17 294 0 253 183 293 76 75 162 0 0 -17 63 0 253 293 1
83 61 289 173 0 180 +17 183 0 253 63 294 64 295 181 0 289 +17 289 0 272 274 288
 64 63 173 0 0 -17 274 0 272 31 289 88 66 169 0 0 -17 66 0 255 295 296 64 274 16
9 0 183 +16 169 322 0 ?66 170 154 167 170 170 1 17 295 0 255 80 66 76 183 181 0
 294 -17 296 0 255 66 285 88 134 132 0 274 -17 285 0 255 296 284 86 137 135 0 0
 -17 134 0 26 28 27 86 296 132 0 285 +15 26 442 0 28 297 0 17 28 0 26 24 134 25
 35 145 0 29 -17 27 0 26 134 24 88 31 131 0 296 +17 35 0 34 137 32 86 28 145 0 1
34 +15 34 421 0 283 298 0 17 137 0 34 283 35 83 285 135 0 284 +17 283 0 34 47 13
7 33 85 143 0 278 -17 47 0 34 36 283 45 278 202 0 130 +17 36 0 34 32 47 48 130 1
27 0 0 -14 298 416 299 ?282 300 301 5 302 -0 0 282 300 21 81 1 299 1812 216 298
 303 0 266 304 305 14 282 427 304 ?297 298 281 5 306 -0 0 297 298 21 14 300 283
 307 ?298 308 309 5 310 -0 0 298 308 21 15 301 514 0 311 298 34 50 302 453 0 298
 306 312 0 +.009525 .04318 .0083566 0 1 0 0 0 1 50 306 454 0 282 313 302 0 +.009
525 0 .0083566 -1 0 0 0 0 1 50 312 452 0 297 302 314 0 +.041275 .04318 .0083566
 1 0 0 0 0 -1 14 297 438 315 ?276 282 26 5 312 -0 0 276 282 21 50 314 298 0 308
 312 310 0 +.0254 .06985 .0254 0 1 0 0 0 1 14 308 274 316 ?300 211 317 5 314 +0
 0 300 211 21 51 310 296 0 300 314 236 0 +.0254 .06985 .0254 0 1 0 .01778 0 0 1
 50 236 231 0 245 310 234 0 +.0254 .07747 .0254 0 1 0 0 0 1 14 245 208 318 ?211
 240 319 5 236 +0 0 211 240 21 81 1 318 1817 216 245 320 0 316 321 322 14 211 21
6 321 ?308 245 209 5 234 -0 0 308 245 21 15 319 255 0 323 245 324 17 323 0 319 3
23 323 0 189 150 0 0 -15 324 210 0 153 245 0 17 153 0 324 153 153 0 325 151 0 0
 +17 325 0 212 325 325 0 153 151 0 0 -15 212 219 0 325 211 0 17 189 0 309 189 18
9 0 323 150 0 0 +15 309 286 0 189 300 326 15 326 287 0 327 300 0 17 327 0 326 32
7 327 0 149 142 0 0 -17 149 0 317 149 149 0 327 142 0 0 +15 317 276 0 149 308 32
8 15 328 277 0 191 308 0 17 191 0 328 191 191 0 232 155 0 0 +17 232 0 224 232 23
2 0 191 155 0 0 -81 1 321 1818 216 211 329 0 318 330 331 80 255 1 216 332 333 90
00 1 1 1 1 1 1 1 1 0 FFFFTFTFFFFFFF1 81 1 329 1729 334 211 0 321 320 335 336 81
 1 330 1819 216 337 338 0 321 339 340 82 255 1 331 -1944059763 14 337 536 330 ?2
60 276 341 5 342 +0 0 260 276 21 81 1 338 1736 334 337 0 330 343 344 345 81 1 33
9 1820 216 260 344 0 330 346 347 82 1 340 -241696635 14 260 544 339 ?257 337 348
 5 349 -0 0 257 337 21 81 1 344 1737 334 260 0 339 338 350 351 81 1 346 1821 216
 276 343 0 339 352 353 82 1 347 -245301115 14 276 443 346 ?337 297 275 5 313 -0
 0 337 297 21 81 1 343 1735 334 276 0 346 354 338 355 81 1 352 1822 216 100 356
 0 346 0 357 82 1 353 -279707513 14 100 741 352 ?96 263 358 5 359 -0 0 96 263 21
 81 1 356 1741 334 100 360 352 361 362 363 82 1 357 -1735720821 80 1 334 0 364 8
001 0 0 0 0 3 5 0 0 0 FFFFTFTFFFFFFF2 81 3 360 1458 365 100 0 356 0 366 367 0 0
 81 1 361 1740 334 263 0 266 265 356 368 81 1 362 1742 334 96 0 98 356 369 370 8
3 255 3 363 1 1 1 81 1 98 1799 216 96 362 0 0 214 371 81 1 369 1743 334 99 366 2
18 362 217 372 83 3 370 1 1 1 81 3 366 1459 365 99 0 369 360 0 373 0 0 81 1 218
 1801 216 99 369 0 214 222 374 81 1 217 1744 334 17 0 214 369 0 375 83 3 372 1 1
 1 83 3 375 1 1 1 82 1 374 -1719795573 80 3 365 376 377 9000 0 0 0 0 3 5 0 0 0 F
FFFTFFFFFFFFF5 5 5 86 255 3 373 0 -1 0 .00635 .009652 .00635 1e100 1e100 1e100 7
9 255 12 377 TexSplitFace82 1 371 -1719205749 81 1 266 1811 216 263 361 0 262 29
9 378 81 1 265 1739 334 259 0 262 350 361 379 83 3 368 1 1 1 81 1 350 1738 334 2
57 0 258 344 265 380 83 3 379 1 1 1 81 1 258 1809 216 257 350 0 254 262 381 83 3
 380 1 1 1 81 1 254 1808 216 229 382 0 252 258 383 82 1 381 309330055 81 1 382 1
723 334 229 0 254 384 385 386 81 1 252 1807 216 249 385 0 248 254 387 82 1 383 -
137297790 81 1 385 1724 334 249 0 252 382 388 389 81 1 248 1806 216 241 388 0 24
4 252 390 82 1 387 -137559954 81 1 388 1725 334 241 0 248 385 391 392 81 1 244 1
805 216 240 393 0 239 248 394 82 1 390 -137822098 81 1 393 1727 334 240 0 244 39
1 320 395 81 1 239 1804 216 237 391 0 227 244 396 82 1 394 -138739573 81 1 391 1
726 334 237 0 239 388 393 397 81 1 227 1803 216 223 384 0 222 239 398 82 1 396 -
144375667 81 1 384 1722 334 223 0 227 226 382 399 82 1 398 -137035666 81 1 226 1
721 334 15 0 222 0 384 400 83 3 399 1 1 1 83 3 400 1 1 1 83 3 397 1 1 1 81 1 320
 1728 334 245 0 318 393 329 401 83 3 395 1 1 1 83 3 401 1 1 1 83 3 392 1 1 1 83
 3 389 1 1 1 83 3 386 1 1 1 82 1 378 -1735130997 86 3 367 0 -1 0 .04445 .009652
 .00635 1e100 1e100 1e100 79 15 364 SDL/TYSA_COLOUR15 358 744 0 402 100 403 51 3
59 750 0 100 101 269 0 +.04445 0 .00635 0 -1 0 .00189865 0 0 -1 52 101 783 0 96
 220 359 0 +.00635 .01778 .00635 0 -1 0 .00189865 .857167300702111 .515038074910
056 0 0 -1 52 269 749 0 263 359 342 0 +.04445 .01778 .00635 0 -1 0 .00189865 .85
7167300702111 .515038074910057 0 0 -1 50 342 559 0 337 269 349 0 +.0254 .047498
 .0254 0 -1 0 0 0 -1 51 349 557 0 260 342 313 0 +.0254 .047498 .0254 0 -1 0 .009
144 0 0 -1 50 313 456 0 276 349 306 0 +0 0 .0083566 0 0 -1 -1 0 0 51 220 784 0 9
9 0 101 0 +.00635 0 .00635 0 -1 0 .00189865 0 0 -1 17 402 0 358 402 402 0 116 11
0 0 0 -15 403 745 0 109 100 0 17 109 0 403 109 109 0 404 106 0 0 +17 404 0 405 4
04 404 0 109 106 0 0 -15 405 721 0 404 240 272 17 116 0 406 116 116 0 402 110 0
 0 +15 406 740 0 116 263 0 81 1 354 1734 334 297 0 315 407 343 408 83 3 355 1 1
 1 81 1 315 1815 216 297 354 0 307 316 409 81 1 407 1733 334 282 0 304 303 354 4
10 83 3 408 1 1 1 81 1 304 1813 216 282 407 0 299 307 411 81 1 303 1732 334 298
 0 299 412 407 413 83 3 410 1 1 1 81 1 412 1731 334 300 0 307 335 303 414 83 3 4
13 1 1 1 81 1 307 1814 216 300 412 0 304 315 415 81 1 335 1730 334 308 0 316 329
 412 416 83 3 414 1 1 1 81 1 316 1816 216 308 335 0 315 318 417 83 3 416 1 1 1 8
2 1 417 -943062920 82 1 415 -946601864 82 1 411 -267648889 82 1 409 -266993529 8
3 3 351 1 1 1 15 348 547 0 418 260 419 17 418 0 348 418 418 0 120 118 0 0 -15 41
9 548 0 123 260 0 17 123 0 419 123 123 0 311 117 0 0 +17 311 0 301 311 311 0 123
 117 0 0 -17 120 0 341 120 120 0 418 118 0 0 +15 341 538 0 120 337 420 15 420 53
9 0 193 337 0 17 193 0 420 193 193 0 421 121 0 0 +17 421 0 233 421 421 0 193 121
 0 0 -15 233 523 0 421 15 0 83 3 345 1 1 1 83 3 336 1 1 1 79 14 333 SWEntUnchang
ed82 1 322 -1941045128 82 1 305 -259325817 17 80 0 255 186 295 60 78 159 0 158 -
17 78 0 422 75 158 76 80 159 0 295 +17 158 0 422 78 72 60 290 156 0 286 +15 422
 3 0 158 237 0 17 72 0 422 158 75 56 292 164 0 291 +17 75 0 422 72 78 73 294 162
 0 293 +17 37 0 264 271 29 48 32 38 0 195 -15 268 739 0 92 263 406 17 92 0 268 9
2 92 90 0 0 0 0 ?82 1 267 311296135 15 246 755 0 423 240 405 17 423 0 246 423 42
3 0 112 107 0 0 -17 112 0 424 112 112 0 423 107 0 0 +15 424 779 0 112 99 0 15 24
2 1318 0 22 237 422 17 22 0 242 22 22 0 221 10 0 0 +17 221 0 215 221 221 0 22 10
 0 0 -82 1 228 -242679675 15 105 778 0 103 99 424 82 1 219 -557842291 19 16 95 0
 1 0 9 5 S0 74 4 CI16 index_map_offset0 0 1 dCCZ20 14 4 0 0 352 2 366 217 0 0 0
 0 0 0 0 0 0 0 0 0 0 0 0 0 80 2 12 425 426 8004 0 0 0 0 3 5 0 0 0 FFTFFFFFFFFFFF
2 3 83 1 13 1190 79 16 426 SDL/TYSA_DENSITY1 0 
